<?xml version="1.0" encoding="UTF-8" standalone="no"?>
<!-- Created with Inkscape (http://www.inkscape.org/) -->

<svg
   xmlns:dc="http://purl.org/dc/elements/1.1/"
   xmlns:cc="http://creativecommons.org/ns#"
   xmlns:rdf="http://www.w3.org/1999/02/22-rdf-syntax-ns#"
   xmlns:svg="http://www.w3.org/2000/svg"
   xmlns="http://www.w3.org/2000/svg"
   xmlns:sodipodi="http://sodipodi.sourceforge.net/DTD/sodipodi-0.dtd"
   xmlns:inkscape="http://www.inkscape.org/namespaces/inkscape"
   width="4.3899999cm"
   height="5.0799999cm"
   viewBox="0 0 43.899999 50.799998"
   version="1.1"
   id="svg8"
   inkscape:version="0.92.4 (5da689c313, 2019-01-14)"
   sodipodi:docname="CARoT.svg"
   inkscape:export-filename="D:\Profils\mcanouil\Downloads\inside.png"
   inkscape:export-xdpi="1278.6788"
   inkscape:export-ydpi="1278.6788">
  <defs
     id="defs2" />
  <sodipodi:namedview
     id="base"
     pagecolor="#ffffff"
     bordercolor="#666666"
     borderopacity="1.0"
     inkscape:pageopacity="0.0"
     inkscape:pageshadow="2"
     inkscape:zoom="2.8284271"
     inkscape:cx="123.64512"
     inkscape:cy="80.374581"
     inkscape:document-units="mm"
     inkscape:current-layer="layer2"
     showgrid="false"
     inkscape:snap-global="true"
     showguides="false"
     inkscape:snap-bbox="true"
     inkscape:snap-center="true"
     inkscape:window-width="1920"
     inkscape:window-height="1017"
     inkscape:window-x="1912"
     inkscape:window-y="-8"
     inkscape:window-maximized="1"
     units="cm">
    <inkscape:grid
       type="xygrid"
       id="grid3723" />
  </sodipodi:namedview>
  <metadata
     id="metadata5">
    <rdf:RDF>
      <cc:Work
         rdf:about="">
        <dc:format>image/svg+xml</dc:format>
        <dc:type
           rdf:resource="http://purl.org/dc/dcmitype/StillImage" />
        <dc:title />
      </cc:Work>
    </rdf:RDF>
  </metadata>
  <g
     inkscape:label="Calque 1"
     inkscape:groupmode="layer"
     id="layer1"
     style="display:inline"
     transform="translate(0,-246.20002)">
    <path
       sodipodi:type="star"
       id="path3733"
       sodipodi:sides="6"
       sodipodi:cx="89.368446"
       sodipodi:cy="104.91249"
       sodipodi:r1="25.4"
       sodipodi:r2="21.997046"
       sodipodi:arg1="1.5707963"
       sodipodi:arg2="2.0943951"
       inkscape:flatsided="true"
       inkscape:rounded="0"
       inkscape:randomized="0"
       d="m 89.368447,130.31249 -21.997045,-12.7 -10e-7,-25.399998 21.997045,-12.700001 21.997044,12.699999 0,25.4 z"
       style="fill:#f87217;fill-opacity:1;stroke-width:0.16493505"
       inkscape:transform-center-x="4.3097664e-06"
       inkscape:transform-center-y="-3.0197514e-06"
       transform="matrix(0.99786129,0,0,1,-67.227313,166.68751)"
       inkscape:export-xdpi="1278.5"
       inkscape:export-ydpi="1278.5" />
  </g>
  <g
     inkscape:groupmode="layer"
     id="layer2"
     inkscape:label="Calque 2"
     style="display:inline"
     transform="translate(0,-246.20002)">
    <path
       transform="matrix(0.93893248,0,0,0.9409449,-61.960937,172.88313)"
       inkscape:transform-center-y="0.9795083"
       inkscape:transform-center-x="0.84646667"
       style="fill:#ffb85d;fill-opacity:1;stroke-width:0.16493505"
       d="m 89.368447,130.31249 -21.997045,-12.7 -10e-7,-25.399998 21.997045,-12.700001 21.997044,12.699999 0,25.4 z"
       inkscape:randomized="0"
       inkscape:rounded="0"
       inkscape:flatsided="true"
       sodipodi:arg2="2.0943951"
       sodipodi:arg1="1.5707963"
       sodipodi:r2="21.997046"
       sodipodi:r1="25.4"
       sodipodi:cy="104.91249"
       sodipodi:cx="89.368446"
       sodipodi:sides="6"
       id="path3735"
       sodipodi:type="star"
       inkscape:export-xdpi="1358.7406"
       inkscape:export-ydpi="1358.7406" />
    <path
       style="opacity:0;fill:#001a34;fill-opacity:0;stroke-width:0.09354433"
       d="M 11.589965,289.45828 1.3234745,283.50726 v -11.93584 -11.93583 l 10.1729465,-5.88226 c 5.59512,-3.23524 10.237906,-5.92127 10.317302,-5.96895 0.108688,-0.0653 2.691526,1.3869 10.453578,5.87744 l 10.309225,5.96414 v 11.94512 11.94513 l -10.292001,5.95496 c -5.660599,3.27523 -10.322615,5.95117 -10.360034,5.94654 -0.03742,-0.005 -4.687956,-2.68638 -10.334526,-5.95943 z"
       id="path3739"
       inkscape:connector-curvature="0" />
    <path
       style="opacity:0;fill:#001a34;fill-opacity:0;stroke-width:0.09354433"
       d="M 11.589965,289.45828 1.3234745,283.50726 v -11.93584 -11.93583 l 10.1729465,-5.88226 c 5.59512,-3.23524 10.237906,-5.92127 10.317302,-5.96895 0.108688,-0.0653 2.691526,1.3869 10.453578,5.87744 l 10.309225,5.96414 v 11.94512 11.94513 l -10.292001,5.95496 c -5.660599,3.27523 -10.322615,5.95117 -10.360034,5.94654 -0.03742,-0.005 -4.687956,-2.68638 -10.334526,-5.95943 z"
       id="path4546"
       inkscape:connector-curvature="0" />
    <path
       style="opacity:0;fill:#001a34;fill-opacity:0;stroke-width:0.09354433"
       d="M 11.589965,289.45828 1.3234745,283.50726 v -11.93584 -11.93583 l 10.1729465,-5.88226 c 5.59512,-3.23524 10.237906,-5.92127 10.317302,-5.96895 0.108688,-0.0653 2.691526,1.3869 10.453578,5.87744 l 10.309225,5.96414 v 11.94512 11.94513 l -10.292001,5.95496 c -5.660599,3.27523 -10.322615,5.95117 -10.360034,5.94654 -0.03742,-0.005 -4.687956,-2.68638 -10.334526,-5.95943 z"
       id="path4548"
       inkscape:connector-curvature="0" />
    <path
       style="opacity:0;fill:#006f34;fill-opacity:0;stroke-width:0.09354433"
       d="M 11.589965,289.45828 1.3234745,283.50726 v -11.93584 -11.93583 l 10.1729465,-5.88226 c 5.59512,-3.23524 10.237906,-5.92127 10.317302,-5.96895 0.108688,-0.0653 2.691526,1.3869 10.453578,5.87744 l 10.309225,5.96414 v 11.94512 11.94513 l -10.292001,5.95496 c -5.660599,3.27523 -10.322615,5.95117 -10.360034,5.94654 -0.03742,-0.005 -4.687956,-2.68638 -10.334526,-5.95943 z"
       id="path4550"
       inkscape:connector-curvature="0" />
    <path
       style="opacity:0;fill:#001a34;fill-opacity:1;stroke-width:0.09354433"
       d="M 11.589965,289.45828 1.3234745,283.50726 v -11.93584 -11.93583 l 10.1729465,-5.88226 c 5.59512,-3.23524 10.237906,-5.92127 10.317302,-5.96895 0.108688,-0.0653 2.691526,1.3869 10.453578,5.87744 l 10.309225,5.96414 v 11.94512 11.94513 l -10.292001,5.95496 c -5.660599,3.27523 -10.322615,5.95117 -10.360034,5.94654 -0.03742,-0.005 -4.687956,-2.68638 -10.334526,-5.95943 z"
       id="path4552"
       inkscape:connector-curvature="0" />
    <path
       style="opacity:0;fill:#001a34;fill-opacity:1;stroke-width:0.09354433"
       d="M 11.589965,289.45828 1.3234745,283.50726 v -11.93584 -11.93583 l 10.1729465,-5.88226 c 5.59512,-3.23524 10.237906,-5.92127 10.317302,-5.96895 0.108688,-0.0653 2.691526,1.3869 10.453578,5.87744 l 10.309225,5.96414 v 11.94512 11.94513 l -10.292001,5.95496 c -5.660599,3.27523 -10.322615,5.95117 -10.360034,5.94654 -0.03742,-0.005 -4.687956,-2.68638 -10.334526,-5.95943 z"
       id="path4554"
       inkscape:connector-curvature="0" />
    <path
       style="opacity:0;fill:#001a34;fill-opacity:1;stroke-width:0.09354433"
       d="M 11.589965,289.45828 1.3234745,283.50726 v -11.93584 -11.93583 l 10.1729465,-5.88226 c 5.59512,-3.23524 10.237906,-5.92127 10.317302,-5.96895 0.108688,-0.0653 2.691526,1.3869 10.453578,5.87744 l 10.309225,5.96414 v 11.94512 11.94513 l -10.292001,5.95496 c -5.660599,3.27523 -10.322615,5.95117 -10.360034,5.94654 -0.03742,-0.005 -4.687956,-2.68638 -10.334526,-5.95943 z"
       id="path4556"
       inkscape:connector-curvature="0" />
    <path
       style="opacity:0;fill:#001a34;fill-opacity:1;stroke-width:0.09354433"
       d="m 11.590065,289.47026 -10.2664903,-5.95288 0.00145,-11.93003 0.00145,-11.93003 10.2585563,-5.93227 c 5.642206,-3.26275 10.306751,-5.93227 10.365655,-5.93227 0.0589,0 4.723198,2.66952 10.365094,5.93227 l 10.257996,5.93227 0.0013,11.93032 0.0013,11.93032 -10.256523,5.93665 c -5.641083,3.26515 -10.3031,5.94382 -10.360034,5.95259 -0.05693,0.009 -4.723435,-2.66285 -10.370005,-5.93694 z"
       id="path4558"
       inkscape:connector-curvature="0" />
    <path
       style="opacity:0;fill:#001a34;fill-opacity:1;stroke-width:0.09354433"
       d="m 11.590065,289.47026 -10.2664903,-5.95288 0.00145,-11.93003 0.00145,-11.93003 10.2585563,-5.93227 c 5.642206,-3.26275 10.306751,-5.93227 10.365655,-5.93227 0.0589,0 4.723198,2.66952 10.365094,5.93227 l 10.257996,5.93227 0.0013,11.93032 0.0013,11.93032 -10.256523,5.93665 c -5.641083,3.26515 -10.3031,5.94382 -10.360034,5.95259 -0.05693,0.009 -4.723435,-2.66285 -10.370005,-5.93694 z"
       id="path4560"
       inkscape:connector-curvature="0" />
    <path
       style="opacity:0;fill:#001a34;fill-opacity:1;stroke-width:0.09354433"
       d="m 11.590065,289.47026 -10.2664903,-5.95288 0.00145,-11.93003 0.00145,-11.93003 10.2585563,-5.93227 c 5.642206,-3.26275 10.306751,-5.93227 10.365655,-5.93227 0.0589,0 4.723198,2.66952 10.365094,5.93227 l 10.257996,5.93227 0.0013,11.93032 0.0013,11.93032 -10.256523,5.93665 c -5.641083,3.26515 -10.3031,5.94382 -10.360034,5.95259 -0.05693,0.009 -4.723435,-2.66285 -10.370005,-5.93694 z"
       id="path4562"
       inkscape:connector-curvature="0" />
    <g
       id="g6057">
      <g
         id="g5454"
         transform="matrix(0.00280467,0,0,-0.00280467,15.218227,287.65179)"
         style="display:inline;fill:#f87217;stroke:none">
        <path
           style="stroke-width:0.9875052"
           id="path5452"
           d="m 5026.5191,12326.733 c -34.286,19.238 -120.2486,7.459 -163.5672,-22.955 -139.3067,-97.522 -189.5558,-206.844 -713.0309,-1553.602 -124.5818,-321.884 -230.0343,-588.49 -232.62,-591.477 -2.5855,-2.986 -7.0361,49.2 -9.802,116.908 -3.275,94.275 1.9247,148.552 21.9383,230.5 13.9036,59.804 31.377,147.87 38.3704,196.678 19.4413,138.611 -17.476,486.695 -60.8464,573.887 -31.9177,64.212 -162.6892,130.422 -223.078,113.481 -22.6333,-6.527 -38.4476,-20.264 -67.2362,-58.038 -68.3664,-91.022 -97.7869,-275.856 -93.8169,-594.101 1.8704,-181.887 -26.4118,-353.336 -117.0998,-708.492 -78.1223,-305.9438 -178.0315,-620.456 -308.7688,-973.5875 -95.5557,-258.1936 -284.6454,-734.5311 -291.6101,-735.0316 -2.0394,-0.8468 9.5246,62.291 26.406,139.112 137.6733,646.2603 208.0389,1284.1835 179.0874,1618.8371 -13.1974,144.666 -30.5935,221.124 -66.1435,287.177 -50.8359,93.655 -116.6676,123.229 -219.8374,97.611 -45.3669,-11.66 -54.7171,-17.935 -99.3201,-69.443 -39.9779,-47.678 -53.5985,-72.46 -75.5597,-137.044 -115.4691,-341.5349 -175.0657,-1031.8877 -197.3588,-2270.518 -3.3095,-168.2554 -6.7819,-305.0191 -8.275,-303.7262 -1.4929,1.2927 -20.5109,32.1293 -42.0688,69.0839 -250.0817,430.7737 -525.8314,741.3902 -720.7331,813.4919 -112.254,42.3377 -220.9957,16.3208 -295.8803,-71.6697 -43.3103,-50.0176 -55.2832,-87.9817 -48.6846,-160.3151 9.0012,-105.7641 74.3755,-226.3788 290.4744,-534.9818 83.4827,-119.3133 160.3465,-234.2016 171.5988,-254.3951 l 20.1648,-37.0547 -45.4382,38.0386 c -62.6084,52.9065 -159.5486,115.9468 -220.3549,143.7801 -60.8064,27.8333 -158.7134,26.3973 -250.4393,-2.5972 -176.4872,-57.4884 -440.67866,-238.8923 -741.19855,-509.016 -360.34522,-324.1283 -668.10441,-649.378 -1269.2757,-1343.6506 -480.93705,-555.4184 -539.56115,-626.1384 -1681.15135,-2032.0199 -112.5231,-139.0005 -309.8272,-374.4034 -437.0721,-522.8628 -232.065,-268.0043 -232.7115,-268.7507 -320.0956,-328.9365 -46.651,-32.7559 -86.5372,-62.2251 -85.5907,-65.6575 -0.1459,-7.7112 322.0663,145.6591 594.2868,283.5356 764.5838,388.1839 955.7843,474.7327 1287.5181,583.2826 246.8726,81.4491 628.46965,158.5789 707.22995,143.9371 68.063,-11.91 146.3142,0.014 196.4976,32.3241 32.1294,20.5109 102.1688,39.5459 273.29289,74.2467 127.05023,24.5324 342.794557,71.5409 479.84146,103.0925 136.30042,32.198 388.40734,89.5205 560.62404,128.5003 874.81296,198.6853 1115.72196,265.7044 1436.99586,402.9056 293.4691,124.7021 477.2414,246.4208 620.947,409.3643 116.4559,132.9825 174.6625,248.4773 202.3527,408.6839 33.9456,190.0589 -41.9116,505.2404 -176.2839,728.7076 -45.4554,77.2414 -213.4132,310.196 -294.1013,410.108 -36.7344,43.5648 -63.9642,81.512 -61.3785,84.4982 6.4642,7.4653 196.3345,63.8153 325.67,95.5128 378.2564,94.3915 947.8272,127.6249 1764.5311,102.3115 795.6093,-24.0292 1218.7286,-18.1228 1803.6677,25.3158 368.3855,27.1755 620.8386,89.4234 741.5905,182.1103 39.7863,30.8623 48.8361,41.3138 62.2021,79.3783 19.9762,53.2409 11.9933,105.8727 -23.5028,161.4276 -22.8506,35.4617 -33.4021,45.9045 -73.2599,64.7423 -143.7085,70.8803 -515.7522,104.3485 -1219.6642,109.065 -114.1761,0.8954 -289.4961,5.0971 -389.2968,10.526 -971.5843,47.0858 -1553.6459,22.0558 -2058.8066,-89.157 -64.7679,-14.4559 -115.9065,-23.7318 -113.9672,-21.4921 7.7569,8.9583 326.0533,129.1439 446.4305,168.5984 226.3788,74.3755 586.7269,164.6797 924.25,231.6414 398.3124,78.3313 721.0222,117.6256 1649.019,199.7209 1085.9465,95.5471 1439.8846,167.8889 1668.3599,339.7252 171.2815,129.9219 171.3045,304.9416 -2.4654,404.4646 -197.1582,113.2438 -462.0907,146.7091 -909.2277,114.574 -463.2062,-32.5898 -999.7124,-136.2544 -1641.3564,-316.0822 -75.511,-20.8284 -128.489,-33.7367 -118.3921,-28.1106 10.0967,5.6262 61.9733,33.857 115.8895,62.9343 293.9527,156.9401 498.4646,292.0505 570.8637,375.6618 42.6639,49.2712 46.242,57.9292 49.6029,108.5757 2.8144,48.5074 -8.1004,93.2277 -34.037,132.6679 -13.4921,22.1329 854.1388,262.3058 1127.0943,312.0276 165.2064,29.3755 251.3144,48.8633 314.8354,70.931 54.6167,19.3257 175.8778,85.4466 192.685,104.8581 8.4033,9.7028 -10.223,54.5707 -68.778,167.9746 l -79.0208,154.6359 -219.2481,1.746 c -940.622,5.906 -1609.1125,-102.3439 -2230.4743,-359.8206 -484.0777,-200.0079 -919.1586,-497.304 -1332.0013,-909.214 -21.6322,-20.4567 -18.9006,-9.7594 15.8887,71.1491 22.8622,52.0482 52.1885,111.5618 66.1095,132.1644 470.7716,706.6039 827.7591,1428.1321 1083.9363,2188.6201 137.8763,409.649 258.8487,908.395 244.4757,1010.971 -10.9319,83.925 -53.3468,148.083 -123.512,189.245 z m 884.5375,-2810.2268 c -119.8312,-37.3156 -543.5283,-200.7797 -786.8599,-302.2764 -317.3954,-132.722 -541.0255,-235.6028 -745.6004,-340.6147 -75.6026,-39.0368 -142.6017,-71.1548 -148.8199,-72.3019 -16.6152,-2.5941 145.9167,112.6975 275.0807,195.4878 397.6888,252.6046 845.112,426.8748 1325.8546,517.4311 111.9279,20.6445 141.2803,21.3558 80.3449,2.2741 z M 6912.7394,8446.6767 c -311.4117,-50.3837 -1116.3111,-169.8368 -1163.0251,-172.494 -55.0716,-3.2579 290.2084,72.6623 511.3788,112.3598 292.3566,52.5145 825.5478,114.6365 844.9575,97.8296 3.7327,-3.232 -83.969,-20.0362 -193.3112,-37.6954 z m -3329.941,882.1988 c -165.4439,-396.23 -334.0911,-747.8856 -405.489,-845.4264 -22.3244,-30.3076 -39.7779,-50.4639 -38.0388,-45.4383 2.3854,5.772 44.5316,101.2104 93.934,212.5721 50.1493,110.7155 159.8349,367.124 243.4262,567.7519 84.2378,201.3743 154.8092,368.8627 158.0413,372.5952 2.5856,2.9863 7.6197,-18.3543 9.8222,-48.9989 4.1502,-48.0066 -2.5057,-72.2875 -61.6959,-213.0556 z M 5263.683,7195.4441 c -80.2449,-3.6667 -443.5131,-14.3726 -725.0436,-22.7046 C 3692.655,7147.6436 2943.0275,7028.6623 2577.0418,6860.9448 L 2518,6834.9994 l 16.6898,60.0055 16.6896,60.0058 72.3247,26.1999 c 669.7234,246.9525 1365.9899,319.3943 2352.2131,243.9574 107.7117,-8.3619 220.9956,-16.3207 250.5481,-18.3972 59.7509,-3.4066 79.1063,-9.7163 37.2177,-11.3267 z m -3307.0362,495.3047 c 151.2168,-175.3516 287.2653,-363.6946 283.0494,-392.7006 -0.8925,-7.0648 -17.299,-32.0464 -35.9451,-55.0887 -24.5641,-28.3681 -29.435,-38.5194 -16.6526,-31.3 16.2149,8.1661 16.5153,3.9874 2.0024,-27.8588 -20.0306,-42.744 -49.0194,-77.7307 -60.3631,-75.7458 -5.0256,1.7391 -27.5216,22.5246 -50.3179,47.4891 -37.2807,41.4252 -42.3606,53.6616 -50.7985,122.3623 -12.3791,94.3202 -55.3746,234.745 -124.1527,402.72 -28.8858,70.7316 -49.6055,125.2483 -45.2264,122.7628 4.4791,-3.8785 48.6789,-53.9076 98.4045,-112.6403 z m 421.3631,-641.7872 c 4.7339,-17.1616 -2.1769,-28.1592 -46.0873,-69.8189 l -51.7681,-49.2252 -30.4619,34.2144 c -16.7239,18.4001 -30.562,35.6076 -30.662,37.0006 -1.1471,6.2181 144.9871,76.9267 149.4661,73.0481 2.9862,-2.5854 7.3195,-14.1753 9.5132,-25.219 z m -204.9724,7.6715 c -18.1083,-1.3015 -1.5016,20.8941 32.0207,41.5054 20.7398,13.3917 20.0933,12.6451 1.6474,-13.1831 -10.1424,-14.7302 -25.3104,-27.7217 -33.6681,-28.3223 z m 186.1032,-202.9475 c -7.3106,-5.4259 -13.7293,-3.787 -16.5694,6.5099 -2.8403,10.2971 2.1308,19.0551 15.5597,27.021 18.8007,11.1521 19.5472,10.5058 16.5696,-6.5101 -2.0851,-9.9508 -8.8954,-22.3415 -15.5599,-27.0208 z m -756.9384,216.528 c 791.0185,-788.1385 1124.8746,-1322.8025 1032.731,-1647.9579 -31.1942,-111.4531 -159.1483,-230.5604 -369.3407,-345.077 -94.303,-51.582 -317.0866,-156.5023 -341.313,-160.3436 -15.2224,-2.4942 -252.9621,305.2536 -428.4395,555.1695 -148.1475,210.5758 -206.9489,317.6614 -350.6143,631.4702 -69.6162,150.4128 -128.1258,272.9209 -130.9117,272.7206 -7.7114,0.146 -75.67126,-223.161 -93.54486,-305.6538 -19.3127,-91.6973 -7.3454,-267.9557 25.3903,-382.5152 120.52876,-420.4821 285.12006,-577.3708 795.03426,-756.3465 61.0524,-21.515 110.0144,-40.3984 108.0751,-42.6381 -12.2819,-14.184 -395.5464,-146.0395 -681.1211,-234.4703 l -70.4858,-22.5675 -67.0418,65.8891 c -205.70466,202.9391 -295.35976,330.2095 -516.57292,729.4542 -77.17284,138.6687 -142.69287,251.5721 -146.22531,252.0183 -9.00411,-1.3472 -64.36176,-146.7404 -87.06087,-230.2802 -34.91817,-127.8223 -9.02134,-303.0797 73.20284,-502.2917 55.87804,-134.5984 179.87353,-291.6043 295.1309,-375.7306 l 62.1078,-45.9415 -112.7203,-29.1033 C 459.6965,4459.4414 172.92023,4387.7258 160.48379,4385.432 c -9.00414,-1.3472 -135.402203,189.0895 -149.148653,224.5053 -3.5867799,10.9433 -15.6313599,22.6789 -25.78246,27.55 -9.40455,4.2246 -31.20838,34.861 -47.6406,68.6837 -21.21174,41.88 -46.848307,77.1414 -86.714727,115.5807 -51.26457,50.9214 -170.05437,135.4936 -186.76975,134.2924 -11.89013,-0.1545 -49.59715,-235.2887 -52.39445,-322.9987 -3.1177,-151.4397 30.20152,-235.1541 119.73076,-302.2274 32.54699,-24.2636 43.94516,-36.7458 36.43408,-39.3858 -10.29694,-2.8403 -344.13314,-82.1383 -362.04134,-86.2256 -2.7858,-0.2003 -8.412,9.8965 -12.8454,22.8793 -8.1203,25.3191 -125.5257,129.5931 -229.6852,205.4158 l -55.289,38.7309 -37.4381,-53.7959 c -57.0766,-82.5101 -78.09105,-150.5273 -72.08455,-234.1043 l 5.20575,-72.4335 -149.82955,-38.771 c -200.1215,-50.086 -321.045,-91.68 -515.8779,-176.3897 -289.1903,-125.7945 -597.018,-294.2327 -961.0845,-527.6191 -216.8484,-138.7972 -251.7637,-159.5084 -210.8847,-124.3673 156.4052,132.3531 487.7445,460.6976 777.7499,769.9696 100.0494,108.0011 217.1059,232.6258 260.0698,277.7177 42.9642,45.0922 398.7502,442.4006 790.6356,882.9074 825.88831,928.1456 1019.276797,1130.3637 1508.26835,1583.45 369.54099,342.2911 659.38915,556.342 776.44265,573.8554 58.2036,8.3835 20.9772,39.3114 322.6925,-262.4383 z"
           inkscape:connector-curvature="0" />
      </g>
      <text
         id="text6051"
         y="285.19415"
         x="6.0775847"
         style="font-style:normal;font-weight:normal;font-size:10.58333302px;line-height:1.25;font-family:sans-serif;letter-spacing:0px;word-spacing:0px;fill:#f87217;fill-opacity:1;stroke:none;stroke-width:0.26458332"
         xml:space="preserve"><tspan
           style="font-style:normal;font-variant:normal;font-weight:normal;font-stretch:normal;font-family:Forte;-inkscape-font-specification:Forte;fill:#f87217;fill-opacity:1;stroke-width:0.26458332"
           y="285.19415"
           x="6.0775847"
           id="tspan6049"
           sodipodi:role="line">CARoT</tspan></text>
    </g>
  </g>
  <g
     inkscape:groupmode="layer"
     id="layer3"
     inkscape:label="Calque 3"
     style="display:inline" />
</svg>
