<?xml version="1.0" standalone="no"?>
<!DOCTYPE svg PUBLIC "-//W3C//DTD SVG 20010904//EN"
 "http://www.w3.org/TR/2001/REC-SVG-20010904/DTD/svg10.dtd">
<svg version="1.0" xmlns="http://www.w3.org/2000/svg"
 width="640.000000pt" height="1280.000000pt" viewBox="0 0 640.000000 1280.000000"
 preserveAspectRatio="xMidYMid meet">
<g transform="translate(0.000000,1280.000000) scale(0.100000,-0.100000)"
fill="#ffffff" stroke="none">
<path d="M932 12793 c-39 -8 -97 -74 -110 -126 -42 -167 -8 -284 484 -1662
118 -329 214 -603 214 -607 0 -4 -38 33 -85 83 -65 70 -97 115 -136 191 -29
55 -74 134 -101 176 -77 119 -336 361 -427 399 -67 28 -211 -8 -246 -61 -13
-20 -16 -41 -13 -89 8 -115 108 -276 322 -517 122 -138 214 -288 380 -620 143
-286 275 -593 409 -950 98 -261 269 -751 264 -756 -1 -2 -34 54 -72 124 -323
586 -692 1121 -936 1358 -106 102 -170 149 -241 176 -101 38 -171 17 -233 -71
-27 -39 -30 -50 -30 -119 1 -63 7 -91 33 -155 138 -338 550 -906 1354 -1869
109 -131 197 -238 195 -238 -2 0 -37 11 -78 25 -477 164 -894 219 -1091 145
-114 -42 -180 -134 -179 -251 0 -67 16 -104 69 -155 77 -75 207 -124 577 -217
143 -36 278 -73 300 -81 l40 -15 -60 -1 c-83 -1 -199 -17 -264 -36 -65 -19
-139 -85 -190 -168 -97 -161 -179 -475 -230 -881 -61 -487 -81 -940 -81 -1870
0 -744 2 -837 60 -2670 6 -181 11 -492 12 -690 0 -359 0 -360 -27 -464 -14
-56 -25 -105 -22 -107 5 -6 150 325 267 611 328 804 417 997 599 1300 135 226
376 538 446 579 60 36 112 97 129 155 11 37 52 98 160 238 81 103 215 282 299
397 83 115 238 326 344 470 538 732 678 943 833 1261 142 290 202 505 204 725
1 179 -31 306 -116 447 -100 168 -367 359 -618 441 -86 29 -369 96 -497 119
-57 9 -103 20 -103 24 0 10 108 179 186 289 227 323 641 726 1283 1248 625
509 945 794 1364 1215 264 265 416 480 447 631 10 50 10 64 -5 102 -20 54 -61
89 -125 108 -41 12 -56 13 -99 1 -157 -41 -464 -262 -1006 -725 -88 -75 -225
-188 -305 -250 -775 -608 -1204 -1013 -1517 -1433 -40 -54 -73 -95 -73 -92 0
12 164 315 230 425 124 207 340 515 554 790 253 324 474 568 1130 1246 768
793 991 1083 1052 1366 45 213 -71 347 -270 308 -226 -44 -451 -194 -772 -515
-333 -332 -675 -767 -1047 -1330 -44 -66 -76 -111 -72 -100 4 11 25 67 47 125
121 315 188 554 188 666 0 66 -3 75 -34 116 -30 39 -68 66 -114 79 -25 8 480
767 656 986 107 132 160 204 194 263 29 51 78 182 78 208 0 13 -44 35 -164 83
l-163 66 -169 -144 c-724 -619 -1164 -1145 -1469 -1754 -238 -474 -374 -990
-417 -1579 -3 -30 -8 -20 -35 65 -17 55 -34 120 -37 145 -108 853 -313 1642
-621 2394 -166 405 -404 867 -483 936 -64 57 -139 78 -220 63z m2540 -1565
c-67 -108 -283 -514 -402 -753 -155 -312 -258 -539 -345 -755 -32 -80 -62
-149 -66 -154 -11 -13 37 183 81 332 137 457 364 887 672 1275 72 90 94 110
60 55z m1476 -155 c-205 -245 -742 -870 -776 -903 -40 -39 174 248 317 425
189 234 556 635 582 635 5 0 -51 -71 -123 -157z m-3134 -1532 c136 -413 240
-794 250 -916 3 -38 3 -65 1 -60 -2 6 -33 107 -69 225 -35 118 -121 387 -190
596 -69 210 -126 385 -126 390 0 4 18 -9 40 -31 35 -34 46 -57 94 -204z m2701
-519 c-59 -56 -330 -305 -540 -498 -631 -580 -1126 -1168 -1295 -1539 l-28
-59 -27 57 -27 57 38 68 c349 633 834 1150 1639 1746 88 65 180 134 204 152
48 37 67 45 36 16z m-2860 -1813 c232 -34 461 -88 477 -113 4 -6 8 -36 9 -66
0 -38 3 -49 8 -35 7 17 10 14 20 -20 13 -46 14 -92 4 -98 -5 -2 -36 -1 -70 3
-56 7 -68 13 -120 60 -72 64 -198 143 -362 226 -69 35 -121 63 -116 64 6 0 73
-9 150 -21z m748 -212 c15 -10 17 -23 11 -84 l-7 -72 -46 6 c-25 3 -47 7 -48
8 -5 4 60 155 66 155 4 0 15 -6 24 -13z m-162 -130 c-13 -13 -15 15 -3 53 7
24 7 23 10 -9 2 -18 -1 -38 -7 -44z m277 -32 c-2 -9 -8 -12 -17 -6 -9 6 -11
16 -6 31 7 21 8 21 17 6 5 -9 8 -23 6 -31z m-723 -336 c1128 -79 1738 -267
1883 -577 50 -106 31 -282 -54 -509 -38 -102 -139 -330 -155 -349 -10 -12
-396 66 -696 141 -253 63 -369 106 -687 251 -153 69 -279 124 -281 122 -6 -5
90 -221 131 -296 46 -83 172 -210 273 -276 371 -242 601 -253 1110 -52 61 24
111 42 111 39 0 -19 -206 -374 -366 -631 l-39 -64 -95 6 c-292 19 -445 57
-879 216 -151 55 -276 98 -279 96 -6 -7 48 -155 86 -234 58 -121 194 -238 389
-336 132 -66 331 -104 475 -92 l78 6 -67 -97 c-82 -120 -254 -365 -262 -375
-6 -7 -229 55 -263 73 -10 6 -27 7 -38 4 -10 -3 -47 6 -82 21 -44 18 -87 28
-143 31 -73 5 -220 -9 -232 -21 -9 -8 118 -213 174 -282 98 -118 179 -160 292
-152 41 3 58 1 54 -6 -6 -9 -209 -291 -220 -306 -2 -2 -13 2 -25 9 -23 14
-182 16 -312 5 l-68 -7 7 -66 c11 -101 40 -167 100 -227 l52 -52 -89 -129
c-120 -171 -185 -283 -278 -477 -138 -288 -262 -621 -386 -1041 -74 -250 -87
-289 -79 -235 32 205 68 676 85 1105 5 149 12 322 15 385 3 63 12 603 20 1200
17 1258 31 1541 105 2212 56 507 136 863 214 954 39 45 -10 44 421 13z"/>
</g>
</svg>
